<svg viewBox="0 0 400 300" xmlns="http://www.w3.org/2000/svg" width="100%" height="100%">
  <rect width="400" height="300" fill="#1A1208"/>
  <ellipse cx="200" cy="210" rx="230" ry="110" fill="#2C1A0A"/>
  <ellipse cx="200" cy="165" rx="155" ry="65" fill="#A06008"/>
  <ellipse cx="200" cy="158" rx="152" ry="60" fill="#B87010"/>
  <ellipse cx="200" cy="150" rx="145" ry="54" fill="#CC8818"/>
  <ellipse cx="200" cy="144" rx="135" ry="47" fill="#DC9820"/>
  <ellipse cx="140" cy="136" rx="18" ry="5" fill="#A06008" opacity=".8" transform="rotate(-15,140,136)"/>
  <ellipse cx="180" cy="132" rx="18" ry="5" fill="#A06008" opacity=".8" transform="rotate(-15,180,132)"/>
  <ellipse cx="220" cy="132" rx="18" ry="5" fill="#A06008" opacity=".8" transform="rotate(-15,220,132)"/>
  <ellipse cx="260" cy="136" rx="18" ry="5" fill="#A06008" opacity=".8" transform="rotate(-15,260,136)"/>
  <ellipse cx="200" cy="148" rx="120" ry="40" fill="#F0C060" opacity=".15"/>
  <ellipse cx="200" cy="232" rx="148" ry="16" fill="#0A0604" opacity=".5"/>
  <ellipse cx="160" cy="124" rx="40" ry="14" fill="#FFF8E7" opacity=".1"/>
  <text x="200" y="285" text-anchor="middle" font-family="Georgia,serif" font-size="13" fill="#C9A84C" letter-spacing="4" opacity=".9">PAN CIABATTA</text>
</svg>
