<svg viewBox="0 0 400 300" xmlns="http://www.w3.org/2000/svg" width="100%" height="100%">
  <rect width="400" height="300" fill="#1A1208"/>
  <ellipse cx="200" cy="210" rx="230" ry="110" fill="#2C1A0A"/>
  <ellipse cx="155" cy="160" rx="85" ry="55" fill="#B8720A"/>
  <ellipse cx="155" cy="153" rx="82" ry="50" fill="#C8820C"/>
  <ellipse cx="155" cy="148" rx="75" ry="44" fill="#D89018"/>
  <ellipse cx="155" cy="144" rx="65" ry="37" fill="#E8A020" opacity=".8"/>
  <ellipse cx="245" cy="160" rx="85" ry="55" fill="#B8720A"/>
  <ellipse cx="245" cy="153" rx="82" ry="50" fill="#C8820C"/>
  <ellipse cx="245" cy="148" rx="75" ry="44" fill="#D89018"/>
  <ellipse cx="245" cy="144" rx="65" ry="37" fill="#E8A020" opacity=".8"/>
  <rect x="192" y="110" width="16" height="80" rx="8" fill="#8B4A06"/>
  <rect x="195" y="115" width="10" height="70" rx="5" fill="#6B3504"/>
  <ellipse cx="200" cy="220" rx="140" ry="16" fill="#0A0604" opacity=".5"/>
  <ellipse cx="130" cy="128" rx="28" ry="14" fill="#FFF8E7" opacity=".1"/>
  <ellipse cx="220" cy="128" rx="28" ry="14" fill="#FFF8E7" opacity=".1"/>
  <text x="200" y="285" text-anchor="middle" font-family="Georgia,serif" font-size="13" fill="#C9A84C" letter-spacing="4" opacity=".9">MARRAQUETA</text>
</svg>
